<?xml version="1.0" encoding="UTF-8" ?>
<!DOCTYPE svg PUBLIC "-//W3C//DTD SVG 1.1//EN" "http://www.w3.org/Graphics/SVG/1.1/DTD/svg11.dtd">
<svg width="512pt" height="512pt" viewBox="0 0 512 512" version="1.1" xmlns="http://www.w3.org/2000/svg">
<g id="#000000ff">
<path fill="white" opacity="1.00" d=" M 253.79 0.00 L 258.02 0.00 C 268.02 3.07 277.70 7.11 287.58 10.54 C 329.75 25.97 371.92 41.39 414.10 56.79 C 417.04 57.90 419.98 59.42 421.93 61.98 C 426.25 67.33 426.19 75.67 421.80 80.96 C 419.67 83.66 416.46 85.13 413.31 86.29 C 363.07 104.62 312.83 123.01 262.59 141.36 C 258.67 142.93 254.23 143.24 250.26 141.67 C 199.06 122.90 147.82 104.21 96.62 85.45 C 91.00 83.51 86.97 77.98 86.86 72.04 C 86.40 65.47 90.81 59.10 97.08 57.15 C 149.34 38.16 201.47 18.81 253.79 0.00 Z" />
<path fill="white" opacity="1.00" d=" M 395.33 125.06 C 405.01 120.83 415.31 117.69 425.23 113.86 C 425.26 133.91 425.22 153.95 425.25 174.00 C 425.33 178.09 424.41 182.40 421.60 185.51 C 416.38 191.69 406.09 192.19 400.13 186.81 C 396.48 183.70 395.07 178.73 395.23 174.07 C 395.32 157.73 395.11 141.39 395.33 125.06 Z" />
<path fill="white" opacity="1.00" d=" M 160.68 140.86 C 184.78 149.61 208.83 158.45 232.91 167.25 C 238.78 169.39 244.64 171.89 250.92 172.47 C 258.41 173.38 266.02 172.14 273.05 169.49 C 299.13 159.92 325.24 150.42 351.32 140.86 C 351.36 158.24 351.31 175.62 351.34 193.00 C 351.90 199.85 347.56 206.64 340.99 208.76 C 314.78 218.39 288.55 227.96 262.32 237.52 C 258.46 239.08 254.07 239.29 250.19 237.72 C 223.59 227.96 196.97 218.25 170.37 208.51 C 164.49 206.36 160.44 200.29 160.68 194.03 C 160.66 176.31 160.66 158.59 160.68 140.86 Z" />
<path fill="white" opacity="1.00" d=" M 94.07 277.12 C 108.34 274.58 123.51 279.00 134.51 288.35 C 144.74 296.95 151.40 309.68 152.42 323.02 C 153.73 337.58 148.28 352.51 137.98 362.87 C 128.65 372.53 115.38 377.86 102.04 378.27 C 91.05 377.55 79.87 374.66 70.97 367.93 C 58.75 359.01 51.67 344.07 51.27 329.08 C 50.71 314.63 56.18 299.82 66.87 289.92 C 74.29 282.91 84.03 278.65 94.07 277.12 Z" />
<path fill="white" opacity="1.00" d=" M 246.17 277.33 C 257.48 275.11 269.45 277.15 279.75 282.17 C 291.83 288.10 300.87 299.48 304.45 312.39 C 309.17 328.77 305.75 347.55 294.62 360.62 C 286.92 369.79 275.61 375.54 263.84 377.27 C 252.09 379.81 239.63 376.64 229.45 370.56 C 216.32 362.58 207.15 348.40 205.50 333.10 C 203.89 319.76 207.86 305.87 216.34 295.45 C 223.75 286.16 234.50 279.59 246.17 277.33 Z" />
<path fill="white" opacity="1.00" d=" M 399.51 277.68 C 412.72 274.60 427.07 277.28 438.31 284.85 C 449.72 292.37 457.89 304.65 460.25 318.13 C 463.23 333.79 458.18 350.67 447.14 362.16 C 437.65 372.34 423.83 378.09 409.97 378.21 C 399.32 377.47 388.52 374.66 379.85 368.21 C 368.79 360.31 361.76 347.45 360.14 334.04 C 358.29 319.56 362.43 304.17 372.19 293.18 C 379.21 285.11 389.09 279.80 399.51 277.68 Z" />
<path fill="white" opacity="1.00" d=" M 26.92 411.01 C 46.34 389.79 75.14 377.10 103.99 378.34 C 122.05 378.29 139.89 383.97 155.25 393.32 C 135.58 415.83 123.67 445.08 122.75 475.02 C 122.50 487.35 122.70 499.67 122.64 512.00 L 13.35 512.00 C 6.53 511.07 0.93 505.50 0.00 498.67 L 0.00 474.56 C 1.45 451.13 10.86 428.21 26.92 411.01 Z" />
<path fill="white" opacity="1.00" d=" M 174.81 416.75 C 190.79 396.64 214.54 382.89 239.98 379.23 C 247.23 377.96 254.61 378.35 261.93 378.37 C 280.92 379.51 299.53 386.18 314.97 397.28 C 334.21 410.99 348.49 431.52 354.39 454.42 C 359.47 473.20 357.11 492.81 357.65 512.00 L 152.64 512.00 C 152.66 500.67 152.58 489.34 152.67 478.01 C 152.98 455.88 160.94 433.99 174.81 416.75 Z" />
<path fill="white" opacity="1.00" d=" M 355.66 394.05 C 383.01 376.34 419.04 373.25 449.07 385.81 C 467.77 393.52 484.02 406.98 495.15 423.86 C 505.19 438.85 510.73 456.56 512.00 474.50 L 512.00 498.64 C 511.07 505.47 505.51 511.05 498.69 512.00 L 387.65 512.00 C 387.59 499.68 387.79 487.35 387.54 475.03 C 386.61 445.42 374.99 416.45 355.66 394.05 Z" />
</g>
</svg>
